<svg width="96" height="60" viewBox="0 0 96 60" fill="none" xmlns="http://www.w3.org/2000/svg">
    <g clip-path="url(#clip0_1410_2)">
        <path d="M57.2625 1.001L87.4515 2.055L95.4495 10.632L93.9765 52.814C93.9543 53.4481 93.6917 54.0499 93.2422 54.4976C92.7926 54.9453 92.1897 55.2053 91.5555 55.225H91.3905L69.3265 54.454V58.113C69.3265 58.6434 69.1158 59.1521 68.7408 59.5272C68.3657 59.9023 67.857 60.113 67.3265 60.113H31.3265C30.7961 60.113 30.2874 59.9023 29.9123 59.5272C29.5373 59.1521 29.3265 58.6434 29.3265 58.113V54.382L5.26254 55.222C4.62829 55.2443 4.00932 55.0245 3.53114 54.6072C3.05296 54.1899 2.75137 53.6064 2.68754 52.975L2.67654 52.811L1.00154 4.841C0.979282 4.20675 1.19907 3.58778 1.61634 3.1096C2.03361 2.63142 2.61712 2.32984 3.24854 2.266L3.41254 2.255L33.6015 1.201L40.8435 7.954L40.6945 8.113H54.5115L54.6765 3.413C54.6983 2.77859 54.9606 2.17622 55.4102 1.72811C55.8598 1.27999 56.4631 1.01969 57.0975 1L57.2625 1.001ZM60.3255 9.113H31.3265C31.0816 9.11303 30.8452 9.20296 30.6622 9.36572C30.4791 9.52847 30.3622 9.75275 30.3335 9.996L30.3265 10.113V39.113H50.3265C50.5918 39.113 50.8461 39.2184 51.0336 39.4059C51.2212 39.5934 51.3265 39.8478 51.3265 40.113V51.113C51.3265 51.3782 51.2212 51.6326 51.0336 51.8201C50.8461 52.0076 50.5918 52.113 50.3265 52.113H30.3265V58.113C30.3266 58.3579 30.4165 58.5943 30.5793 58.7774C30.742 58.9604 30.9663 59.0773 31.2095 59.106L31.3265 59.113H67.3265C67.5715 59.113 67.8079 59.023 67.9909 58.8603C68.1739 58.6975 68.2909 58.4733 68.3195 58.23L68.3265 58.113V17.113H60.3265L60.3255 9.113ZM57.2275 2C56.8548 1.98685 56.4905 2.11305 56.2058 2.35396C55.9211 2.59487 55.7363 2.93322 55.6875 3.303L55.6755 3.447L55.5125 8.113H61.3265L69.3265 16.113V25.742C70.9102 24.9364 72.6729 24.5475 74.4485 24.612C80.2445 24.814 84.7785 29.676 84.5755 35.472C84.3725 41.268 79.5115 45.801 73.7155 45.598C72.1874 45.5455 70.6891 45.1598 69.3255 44.468V53.454L91.4255 54.226C91.7983 54.2391 92.1626 54.113 92.4473 53.872C92.732 53.6311 92.9168 53.2928 92.9655 52.923L92.9775 52.779L94.4055 11.804L86.9125 11.542L85.9125 11.507L86.2095 3.011L57.2275 2ZM32.4285 2.24L3.44754 3.255C3.07489 3.26797 2.72043 3.41927 2.45327 3.6794C2.18612 3.93952 2.02543 4.28983 2.00254 4.662L2.00054 4.807L3.67554 52.777C3.68851 53.1497 3.83981 53.5041 4.09993 53.7713C4.36006 54.0384 4.71037 54.1991 5.08254 54.222L5.22754 54.224L29.3255 53.383V52.113H28.3265C28.0613 52.113 27.807 52.0076 27.6194 51.8201C27.4319 51.6326 27.3265 51.3782 27.3265 51.113V44.948L19.9215 45.206V45.207L18.9215 45.242L13.9255 45.416L12.9255 45.452L12.1925 24.464L29.3265 23.866V10.113C29.3265 9.58257 29.5373 9.07386 29.9123 8.69879C30.2874 8.32371 30.7961 8.113 31.3265 8.113H32.6335L32.4285 2.24ZM59.3265 50.113V51.113H53.3265V50.113H59.3265ZM59.3265 45.113V46.113H53.3265V45.113H59.3265ZM69.3535 26.864L69.3255 26.88V43.33C70.6735 44.1112 72.1935 44.5475 73.7505 44.6C78.6555 44.77 82.8205 41.192 83.4895 36.438L74.0475 36.108L74.4135 25.611C72.6428 25.546 70.8894 25.9802 69.3535 26.864ZM18.7465 40.245L13.7495 40.42L13.8895 44.416L18.8865 44.242L18.7465 40.245ZM27.3395 39.945L19.7465 40.21L19.8865 44.207L27.3245 43.947L27.3265 40.113C27.3265 40.0557 27.3302 39.9997 27.3395 39.945ZM59.3265 40.113V41.113H53.3265V40.113H59.3265ZM18.5735 35.248L13.5765 35.423L13.7165 39.42L18.7125 39.246L18.5735 35.248ZM29.3255 34.872L19.5725 35.213L19.7125 39.211L29.3255 38.875V34.872ZM59.3265 35.113V36.113H39.3265V35.113H59.3265ZM18.3985 30.251L13.4015 30.426L13.5415 34.423L18.5385 34.249L18.3985 30.251ZM29.3265 29.869L19.3995 30.216L19.5395 34.214L29.3265 33.872V29.869ZM59.3265 30.113V31.113H39.3265V30.113H59.3265ZM18.2245 25.254L13.2275 25.429L13.3675 29.426L18.3635 29.252L18.2245 25.254ZM29.3255 24.867L19.2235 25.22L19.3635 29.217L29.3255 28.869V24.867ZM61.3255 9.527V16.113H67.9105L61.3255 9.527ZM87.2005 3.254L86.9465 10.543L94.2365 10.797L87.2005 3.254ZM33.4365 2.413L33.6365 8.113H39.5475L33.4365 2.413Z" fill="white" fill-opacity="0.6"/>
        <path d="M36.049 44.2734H34.4936C34.4652 44.0722 34.4072 43.8935 34.3196 43.7372C34.232 43.5786 34.1196 43.4437 33.9822 43.3324C33.8449 43.2211 33.6863 43.1359 33.5064 43.0767C33.3288 43.0175 33.1359 42.9879 32.9276 42.9879C32.5511 42.9879 32.2232 43.0814 31.9439 43.2685C31.6645 43.4531 31.4479 43.723 31.294 44.0781C31.1402 44.4309 31.0632 44.8594 31.0632 45.3636C31.0632 45.8821 31.1402 46.3177 31.294 46.6705C31.4503 47.0232 31.6681 47.2895 31.9474 47.4695C32.2268 47.6494 32.55 47.7393 32.9169 47.7393C33.1229 47.7393 33.3134 47.7121 33.4886 47.6577C33.6662 47.6032 33.8236 47.5239 33.9609 47.4197C34.0982 47.3132 34.2119 47.1842 34.3018 47.0327C34.3942 46.8812 34.4581 46.7083 34.4936 46.5142L36.049 46.5213C36.0088 46.8551 35.9081 47.1771 35.7472 47.4872C35.5885 47.795 35.3743 48.0708 35.1044 48.3146C34.8369 48.5561 34.5173 48.7479 34.1456 48.8899C33.7763 49.0296 33.3584 49.0994 32.892 49.0994C32.2434 49.0994 31.6634 48.9527 31.152 48.6591C30.643 48.3655 30.2405 47.9406 29.9446 47.3842C29.651 46.8279 29.5043 46.1544 29.5043 45.3636C29.5043 44.5705 29.6534 43.8958 29.9517 43.3395C30.25 42.7831 30.6548 42.3594 31.1662 42.0682C31.6776 41.7746 32.2528 41.6278 32.892 41.6278C33.3134 41.6278 33.7041 41.687 34.0639 41.8054C34.4261 41.9238 34.7469 42.0966 35.0263 42.3239C35.3056 42.5488 35.5329 42.8246 35.7081 43.1513C35.8857 43.478 35.9993 43.852 36.049 44.2734ZM38.2685 49H36.6207L39.1314 41.7273H41.1129L43.62 49H41.9723L40.1506 43.3892H40.0938L38.2685 49ZM38.1655 46.1413H42.0575V47.3416H38.1655V46.1413ZM47.4073 41.7273H48.9272V46.7983C48.9272 47.267 48.8219 47.6742 48.6112 48.0199C48.4028 48.3655 48.1128 48.6319 47.7411 48.8189C47.3694 49.0059 46.9374 49.0994 46.445 49.0994C46.007 49.0994 45.6093 49.0225 45.2518 48.8686C44.8967 48.7124 44.6149 48.4756 44.4066 48.1584C44.1983 47.8388 44.0953 47.4375 44.0977 46.9545H45.6282C45.6329 47.1463 45.672 47.3108 45.7454 47.4482C45.8211 47.5831 45.9241 47.6873 46.0543 47.7607C46.1869 47.8317 46.3432 47.8672 46.5231 47.8672C46.7125 47.8672 46.8723 47.8269 47.0025 47.7464C47.1351 47.6636 47.2357 47.5429 47.3043 47.3842C47.373 47.2256 47.4073 47.0303 47.4073 46.7983V41.7273Z" fill="black" fill-opacity="0.1"/>
    </g>
    <defs>
        <clipPath id="clip0_1410_2">
            <rect width="96" height="60" fill="white"/>
        </clipPath>
    </defs>
</svg>
